<svg width="40" height="40" viewBox="0 0 40 40" fill="none" xmlns="http://www.w3.org/2000/svg">
<circle cx="20" cy="20" r="20" fill="#FFEFEB"/>
<path fill-rule="evenodd" clip-rule="evenodd" d="M17.8953 19.23C17.4578 19.23 17.1119 19.57 17.1119 20C17.1119 20.42 17.4578 20.77 17.8953 20.77H24V25.55C24 28 21.9753 30 19.4724 30H14.5174C12.0247 30 10 28.01 10 25.56V14.45C10 11.99 12.0349 10 14.5276 10H19.4927C21.9753 10 24 11.99 24 14.44V19.23H17.8953ZM27.6302 16.5402L30.5502 19.4502C30.7002 19.6002 30.7802 19.7902 30.7802 20.0002C30.7802 20.2002 30.7002 20.4002 30.5502 20.5402L27.6302 23.4502C27.4802 23.6002 27.2802 23.6802 27.0902 23.6802C26.8902 23.6802 26.6902 23.6002 26.5402 23.4502C26.2402 23.1502 26.2402 22.6602 26.5402 22.3602L28.1402 20.7702H24.0002V19.2302H28.1402L26.5402 17.6402C26.2402 17.3402 26.2402 16.8502 26.5402 16.5502C26.8402 16.2402 27.3302 16.2402 27.6302 16.5402Z" fill="#E25353"/>
</svg>
