<svg width="158" height="158" viewBox="0 0 158 158" fill="none" xmlns="http://www.w3.org/2000/svg">
<circle cx="79" cy="79" r="79" fill="#ECFAE5"/>
<circle cx="78.9999" cy="79.0004" r="62.1639" fill="#2B6112" fill-opacity="0.25"/>
<circle cx="78.5684" cy="78.5679" r="47.4864" fill="#2B6112"/>
<path fill-rule="evenodd" clip-rule="evenodd" d="M68.4296 97.4153L65.0203 94.0059L98.0583 60.8474C99.188 59.7175 101.02 59.7175 102.15 60.8474L103.513 62.2111C104.643 63.3409 104.643 65.1726 103.513 66.3025L72.5209 97.4153C71.3912 98.5452 69.5595 98.5452 68.4296 97.4153Z" fill="white"/>
<path fill-rule="evenodd" clip-rule="evenodd" d="M75.9241 94.0061L72.5147 97.4155C71.3849 98.5453 69.5531 98.5453 68.4234 97.4155L54.8474 83.8394C53.7175 82.7097 53.7175 80.878 54.8474 79.7482L56.2111 78.3845C57.3409 77.2547 59.1726 77.2547 60.3025 78.3845L75.9241 94.0061Z" fill="white"/>
</svg>
